<svg width="24" height="24" viewBox="0 0 24 24" fill="none" xmlns="http://www.w3.org/2000/svg">
  <path d="M4 19.5C4 18.1193 5.11929 17 6.5 17H20C21.1046 17 22 16.1046 22 15V9C22 7.89543 21.1046 7 20 7H4C2.89543 7 2 7.89543 2 9V15C2 17.2091 3.79086 19 6 19V19.5C6 20.3284 6.67157 21 7.5 21H12.5C13.3284 21 14 20.3284 14 19.5V19H18.5C19.8807 19 21 17.8807 21 16.5V15.5" fill="#7C3AED" stroke="#5B21B6" stroke-width="2"/>
  <text x="12" y="14" text-anchor="middle" font-family="Arial, sans-serif" font-size="8" font-weight="bold" fill="#FFF">ABC</text>
</svg>